<?xml version="1.0" encoding="utf-8"?><svg xmlns="http://www.w3.org/2000/svg"><symbol viewBox="0 0 24 24" id="home-alt"><path d="M3 10.182V22h18V10.182L12 2z"/><rect width="6" height="8" x="9" y="14"/></symbol><symbol viewBox="0 0 24 24" id="bag"><rect width="14" height="12" x="5" y="7"/><path d="M8 7a4 4 0 1 1 8 0"/></symbol><symbol viewBox="0 0 24 24" id="add"><path d="M17 12L7 12M12 17L12 7"/><circle cx="12" cy="12" r="10"/></symbol><symbol viewBox="0 0 24 24" id="bell"><path stroke-linejoin="round" d="M10.5,4.5 C12.1666667,4.5 13.8333333,4.5 15.5,4.5 C17.5,4.5 18.8333333,3.83333333 19.5,2.5 L19.5,18.5 C18.8333333,17.1666667 17.5,16.5 15.5,16.5 C13.8333333,16.5 12.1666667,16.5 10.5,16.5 L10.5,16.5 C7.1862915,16.5 4.5,13.8137085 4.5,10.5 L4.5,10.5 C4.5,7.1862915 7.1862915,4.5 10.5,4.5 Z" transform="rotate(90 12 10.5)"/><path d="M11,21 C12.1045695,21 13,20.1045695 13,19 C13,17.8954305 12.1045695,17 11,17" transform="rotate(90 12 19)"/></symbol><symbol viewBox="0 0 24 24" id="settings"><path d="M5.03506429,12.7050339 C5.01187484,12.4731696 5,12.2379716 5,12 C5,11.7620284 5.01187484,11.5268304 5.03506429,11.2949661 L3.20577137,9.23205081 L5.20577137,5.76794919 L7.9069713,6.32070904 C8.28729123,6.0461342 8.69629298,5.80882212 9.12862533,5.61412402 L10,3 L14,3 L14.8713747,5.61412402 C15.303707,5.80882212 15.7127088,6.0461342 16.0930287,6.32070904 L18.7942286,5.76794919 L20.7942286,9.23205081 L18.9649357,11.2949661 C18.9881252,11.5268304 19,11.7620284 19,12 C19,12.2379716 18.9881252,12.4731696 18.9649357,12.7050339 L20.7942286,14.7679492 L18.7942286,18.2320508 L16.0930287,17.679291 C15.7127088,17.9538658 15.303707,18.1911779 14.8713747,18.385876 L14,21 L10,21 L9.12862533,18.385876 C8.69629298,18.1911779 8.28729123,17.9538658 7.9069713,17.679291 L5.20577137,18.2320508 L3.20577137,14.7679492 L5.03506429,12.7050339 Z"/><circle cx="12" cy="12" r="1"/></symbol></svg>